<svg width="1440" height="1052" viewBox="0 0 1440 1052" fill="none" xmlns="http://www.w3.org/2000/svg">
<g opacity="0.64">
<path d="M-80 711.32C-41.4328 656.733 75.5096 550.538 234.741 562.448C433.78 577.335 761.062 542.908 759.444 376.048C757.826 209.187 820.936 -229.985 1074.19 154.29C1327.43 538.566 1764.35 265.324 1037.78 588.19C456.516 846.483 1090.1 848.613 1479.55 817.391" stroke="url(#paint0_linear_1_4515)"/>
<path d="M-39.5459 940.831C-0.97866 886.245 366.219 1219.97 275.195 791.959C184.171 363.952 893.35 715.042 799.898 605.559C706.447 496.076 1032.11 397.138 1114.64 383.802C1197.17 370.465 765.511 711.32 1078.23 817.701C1390.95 924.083 1130.55 1078.12 1520 1046.9" stroke="url(#paint1_linear_1_4515)"/>
<path d="M-79.0127 716.15C-40.4455 661.564 82.6007 566.098 235.728 567.278C427.693 571.363 764.29 546.339 760.432 380.878C756.574 215.417 826.087 -215.457 1075.17 159.121C1324.26 533.699 1739.99 275.435 1038.76 593.021C479.308 847.609 1091.08 853.443 1480.53 822.221" stroke="url(#paint2_linear_1_4515)"/>
<path d="M-78.0251 720.988C-39.4579 666.402 89.692 581.666 236.716 572.116C421.606 565.399 767.517 549.778 761.419 385.716C755.321 221.654 831.239 -200.921 1076.16 163.959C1321.08 528.839 1715.63 285.553 1039.75 597.859C502.1 848.741 1092.07 858.281 1481.52 827.059" stroke="url(#paint3_linear_1_4515)"/>
<path d="M-77.0408 725.831C-38.4735 671.245 96.7802 597.239 237.7 576.959C415.515 559.44 770.741 553.221 762.403 390.559C754.066 227.897 836.387 -186.38 1077.14 168.802C1317.9 523.984 1691.26 295.676 1040.73 602.702C524.888 849.879 1093.06 863.124 1482.51 831.902" stroke="url(#paint4_linear_1_4515)"/>
<path d="M-76.0532 730.682C-37.486 676.096 103.872 612.819 238.688 581.81C409.428 553.488 773.969 556.673 763.391 395.41C752.813 234.147 841.539 -171.831 1078.13 173.653C1314.73 519.137 1666.9 305.807 1041.72 607.553C547.68 851.025 1094.04 867.975 1483.49 836.753" stroke="url(#paint5_linear_1_4515)"/>
<path d="M-75.0659 735.539C-36.4987 680.953 110.963 628.406 239.675 586.667C403.341 547.543 777.196 560.131 764.378 400.267C751.561 240.404 846.69 -157.277 1079.12 178.51C1311.55 514.296 1642.54 315.944 1042.71 612.41C570.472 852.177 1095.03 872.832 1484.48 841.61" stroke="url(#paint6_linear_1_4515)"/>
<path d="M-74.0813 740.404C-35.5141 685.818 118.051 644 240.66 591.532C397.251 541.606 780.42 563.596 765.363 405.132C750.306 246.668 851.838 -142.714 1080.1 183.375C1308.37 509.463 1618.18 326.089 1043.69 617.275C593.261 853.336 1096.02 877.697 1485.46 846.475" stroke="url(#paint7_linear_1_4515)"/>
<path d="M-73.0938 745.278C-34.5265 690.692 125.142 659.604 241.647 596.406C391.164 535.678 783.648 567.071 766.351 410.006C749.053 252.942 856.99 -128.142 1081.09 188.249C1305.19 504.64 1593.82 336.244 1044.68 622.149C616.053 854.506 1097 882.571 1486.45 851.349" stroke="url(#paint8_linear_1_4515)"/>
<path d="M-72.1067 750.16C-33.5395 695.574 132.233 675.216 242.634 601.288C385.076 529.757 786.874 570.553 767.338 414.888C747.801 259.223 862.141 -113.562 1082.08 193.131C1302.02 499.824 1569.45 346.406 1045.67 627.031C638.844 855.682 1097.99 887.453 1487.44 856.231" stroke="url(#paint9_linear_1_4515)"/>
<path d="M-71.1191 755.052C-32.5519 700.466 139.325 690.837 243.622 606.18C378.989 523.847 790.102 574.046 768.325 419.78C746.548 265.514 867.292 -98.9722 1083.07 198.023C1298.84 495.018 1545.09 356.578 1046.66 631.923C661.636 856.869 1098.98 892.345 1488.43 861.123" stroke="url(#paint10_linear_1_4515)"/>
<path d="M-70.1318 759.955C-31.5646 705.369 146.416 706.47 244.609 611.083C372.901 517.948 793.329 577.549 769.312 424.683C745.296 271.817 872.443 -84.3711 1084.05 202.926C1295.66 490.223 1520.73 366.761 1047.64 636.826C684.428 858.067 1099.97 897.248 1489.41 866.026" stroke="url(#paint11_linear_1_4515)"/>
<path d="M-69.1448 764.868C-30.5775 710.282 153.507 722.113 245.596 615.996C366.814 512.058 796.556 581.063 770.299 429.596C744.043 278.13 877.594 -69.7601 1085.04 207.839C1292.49 485.438 1496.37 376.954 1048.63 641.739C707.219 859.275 1100.95 902.161 1490.4 870.939" stroke="url(#paint12_linear_1_4515)"/>
<path d="M-68.1597 769.795C-29.5924 715.208 160.595 737.769 246.581 620.923C360.724 506.183 799.781 584.59 771.285 434.523C742.788 284.456 882.743 -55.1358 1086.03 212.766C1289.31 480.667 1472.01 387.161 1049.62 646.665C730.008 860.496 1101.94 907.088 1491.39 875.866" stroke="url(#paint13_linear_1_4515)"/>
<path d="M-67.1726 774.733C-28.6054 720.147 167.686 753.437 247.568 625.861C354.636 500.319 803.008 588.129 772.272 439.461C741.536 290.793 887.894 -40.4997 1087.01 217.704C1286.13 475.907 1447.65 397.379 1050.6 651.604C752.8 861.73 1102.93 912.026 1492.37 880.804" stroke="url(#paint14_linear_1_4515)"/>
<path d="M-66.1851 779.686C-27.6178 725.099 174.778 769.119 248.556 630.814C348.549 494.469 806.235 591.682 773.259 444.414C740.283 297.145 893.046 -25.8493 1088 222.656C1282.95 471.162 1423.28 407.612 1051.59 656.556C775.592 862.977 1103.91 916.979 1493.36 885.757" stroke="url(#paint15_linear_1_4515)"/>
<path d="M-65.2004 784.655C-26.6332 730.069 181.866 784.818 249.541 635.783C342.459 488.636 809.46 595.252 774.244 449.383C739.028 303.514 898.194 -11.1822 1088.98 227.626C1279.78 466.434 1398.92 417.861 1052.58 661.525C798.381 864.241 1104.9 921.948 1494.35 890.726" stroke="url(#paint16_linear_1_4515)"/>
<path d="M-64.2131 789.64C-25.6459 735.053 188.957 800.533 250.528 640.768C336.372 482.818 812.687 598.837 775.231 454.368C737.776 309.898 903.346 3.50041 1089.97 232.61C1276.6 461.72 1374.56 428.126 1053.56 666.51C821.172 865.521 1105.88 926.933 1495.33 895.711" stroke="url(#paint17_linear_1_4515)"/>
<path d="M-63.2258 794.644C-24.6586 740.058 196.048 816.267 251.515 645.772C330.284 477.021 815.914 602.442 776.218 459.372C736.523 316.302 908.497 18.2029 1090.96 237.615C1273.42 457.027 1350.2 438.411 1054.55 671.515C843.964 866.82 1106.87 931.937 1496.32 900.715" stroke="url(#paint18_linear_1_4515)"/>
<path d="M-62.2385 799.668C-23.6713 745.082 203.139 832.02 252.502 650.796C324.197 471.242 819.141 606.066 777.206 464.396C735.271 322.725 913.648 32.9244 1091.95 242.639C1270.25 452.353 1325.84 448.714 1055.54 676.538C866.756 868.139 1107.86 936.961 1497.31 905.739" stroke="url(#paint19_linear_1_4515)"/>
<path d="M-61.2515 804.714C-22.6842 750.128 210.23 847.796 253.49 655.842C318.109 465.486 822.368 609.713 778.193 469.442C734.018 329.171 918.799 47.6682 1092.93 247.685C1267.07 447.701 1301.48 459.04 1056.52 681.584C889.547 869.479 1108.85 942.007 1498.29 910.785" stroke="url(#paint20_linear_1_4515)"/>
<path d="M-60.2664 809.786C-21.6991 755.199 217.319 863.598 254.475 660.914C312.02 459.755 825.593 613.385 779.178 474.514C732.763 335.642 923.948 62.438 1093.92 252.757C1263.89 443.075 1277.11 469.393 1057.51 686.656C912.336 870.846 1109.83 947.079 1499.28 915.857" stroke="url(#paint21_linear_1_4515)"/>
<path d="M-59.2791 814.884C-20.7118 760.298 224.41 879.425 255.462 666.012C305.932 454.051 828.82 617.084 780.165 479.612C731.51 342.14 929.099 77.234 1094.91 257.855C1260.71 438.475 1252.75 479.771 1058.5 691.754C935.128 872.239 1110.82 952.177 1500.27 920.955" stroke="url(#paint22_linear_1_4515)"/>
<path d="M-58.2917 820.013C-19.7245 765.426 231.501 895.284 256.449 671.141C299.845 448.377 832.047 620.813 781.153 484.74C730.258 348.668 934.251 92.0603 1095.89 262.983C1257.54 433.906 1228.39 490.179 1059.48 696.883C957.92 873.663 1111.81 957.305 1501.25 926.084" stroke="url(#paint23_linear_1_4515)"/>
<path d="M-57.3071 825.177C-18.7399 770.59 238.59 911.177 257.434 676.305C293.755 442.739 835.272 624.578 782.137 489.904C729.003 355.231 939.399 106.922 1096.88 268.147C1254.36 429.372 1204.03 500.624 1060.47 702.047C980.709 875.121 1112.79 962.469 1502.24 931.248" stroke="url(#paint24_linear_1_4515)"/>
<path d="M-56.3198 830.379C-17.7526 775.792 245.681 927.109 258.421 681.507C287.667 437.139 838.499 628.38 783.124 495.107C727.75 361.833 944.55 121.822 1097.87 273.35C1251.18 424.877 1179.66 511.106 1061.46 707.249C1003.5 876.618 1113.78 967.672 1503.23 936.45" stroke="url(#paint25_linear_1_4515)"/>
<path d="M-55.3325 835.622C-16.7653 781.036 252.772 943.082 259.409 686.75C281.58 431.58 841.726 632.224 784.112 500.35C726.498 368.476 949.702 136.763 1098.85 278.593C1248 420.422 1155.3 521.629 1062.44 712.492C1026.29 878.156 1114.77 972.915 1504.21 941.693" stroke="url(#paint26_linear_1_4515)"/>
<path d="M-54.3452 840.917C-15.778 786.33 259.863 959.106 260.396 692.045C275.492 426.072 844.953 636.119 785.099 505.645C725.245 375.17 954.853 151.756 1099.84 283.887C1244.83 416.019 1130.94 532.204 1063.43 717.787C1049.08 879.746 1115.75 978.209 1505.2 946.988" stroke="url(#paint27_linear_1_4515)"/>
<path d="M-53.3579 846.268C-14.7907 791.681 266.954 975.187 261.383 697.396C269.405 420.621 848.18 640.071 786.086 510.996C723.993 381.92 960.004 166.805 1100.83 289.238C1241.65 411.672 1106.58 542.835 1064.42 723.138C1071.88 881.392 1116.74 983.56 1506.19 952.339" stroke="url(#paint28_linear_1_4515)"/>
<path d="M-52.3706 851.682C-13.8034 797.095 274.045 991.331 262.37 702.81C263.318 415.233 851.407 644.086 787.074 516.41C722.74 388.734 965.155 181.917 1101.81 294.653C1238.47 407.388 1082.22 553.529 1065.41 728.552C1094.67 883.101 1117.73 988.975 1507.18 957.753" stroke="url(#paint29_linear_1_4515)"/>
<path d="M-51.386 857.171C-12.8187 802.585 281.134 1007.55 263.355 708.299C257.228 409.92 854.632 648.175 788.058 521.899C721.485 395.623 970.304 197.104 1102.8 300.142C1235.29 403.18 1057.85 564.299 1066.39 734.042C1117.46 884.885 1118.71 994.464 1508.16 963.242" stroke="url(#paint30_linear_1_4515)"/>
<path d="M-50.3984 862.749C-11.8312 808.162 288.225 1023.86 264.343 713.877C251.14 404.695 857.859 652.353 789.046 527.476C720.233 402.6 975.455 212.379 1103.79 305.719C1232.12 399.059 1033.49 575.156 1067.38 739.619C1140.25 886.757 1119.7 1000.04 1509.15 968.82" stroke="url(#paint31_linear_1_4515)"/>
<path d="M-49.4111 868.428C-10.8439 813.842 295.316 1040.27 265.33 719.556C245.053 399.572 861.086 656.633 790.033 533.156C718.98 409.678 980.606 227.757 1104.77 311.399C1228.94 395.041 1009.13 586.116 1068.36 745.299C1163.04 888.732 1120.69 1005.72 1510.13 974.499" stroke="url(#paint32_linear_1_4515)"/>
<path d="M-48.4263 874.23C-9.85903 819.644 302.405 1056.8 266.315 725.358C238.963 394.572 864.311 661.036 791.018 538.958C717.725 416.88 985.755 243.257 1105.76 317.201C1225.76 391.145 984.769 597.198 1069.35 751.101C1185.83 890.829 1121.67 1011.52 1511.12 980.301" stroke="url(#paint33_linear_1_4515)"/>
<path d="M-47.4392 880.182C-8.87197 825.595 309.496 1073.48 267.302 731.31C232.875 389.721 867.538 665.588 792.005 544.909C716.472 424.231 990.906 258.906 1106.75 323.152C1222.59 387.399 960.407 608.43 1070.34 757.052C1208.62 893.075 1122.66 1017.47 1512.11 986.253" stroke="url(#paint34_linear_1_4515)"/>
<path d="M-46.4519 886.313C-7.88467 831.726 316.587 1090.34 268.289 737.441C226.788 385.05 870.765 670.32 792.992 551.041C715.22 431.762 996.057 274.735 1107.73 329.283C1219.41 383.832 936.046 619.841 1071.32 763.183C1231.41 895.501 1123.65 1023.61 1513.09 992.384" stroke="url(#paint35_linear_1_4515)"/>
<path d="M-45.4644 892.67C-6.89712 838.084 323.678 1107.43 269.277 743.798C220.701 380.605 873.992 675.278 793.98 557.398C713.968 439.518 1001.21 290.79 1108.72 335.641C1216.23 380.491 911.685 631.478 1072.31 769.541C1254.2 898.153 1124.63 1029.96 1514.08 998.741" stroke="url(#paint36_linear_1_4515)"/>
<path d="M-44.4771 899.311C-5.90981 844.725 330.769 1124.8 270.264 750.439C214.613 376.444 877.219 680.52 794.967 564.039C712.715 447.559 1006.36 307.129 1109.71 342.282C1213.06 377.435 887.323 643.4 1073.3 776.182C1277 901.089 1125.62 1036.6 1515.07 1005.38" stroke="url(#paint37_linear_1_4515)"/>
<path d="M-43.4927 906.324C-4.92544 851.738 337.857 1142.54 271.248 757.452C208.523 372.655 880.444 686.133 795.952 571.052C711.46 455.971 1011.51 323.84 1110.69 349.295C1209.88 374.75 862.959 655.693 1074.28 783.195C1299.78 904.397 1126.6 1043.62 1516.05 1012.4" stroke="url(#paint38_linear_1_4515)"/>
<path d="M-42.5051 913.831C-3.93789 859.244 344.949 1160.78 272.236 764.959C202.436 369.359 883.671 692.24 796.939 578.559C710.207 464.877 1016.66 341.044 1111.68 356.801C1206.7 372.559 838.598 668.479 1075.27 790.701C1322.58 908.198 1127.59 1051.12 1517.04 1019.9" stroke="url(#paint39_linear_1_4515)"/>
<path d="M-41.5178 922.024C-2.95058 867.437 352.04 1179.7 273.223 773.152C196.349 366.75 886.898 699.034 797.926 586.752C708.955 474.47 1021.81 358.935 1112.67 364.995C1203.52 371.054 814.237 681.953 1076.26 798.894C1345.37 912.686 1128.58 1059.32 1518.03 1028.09" stroke="url(#paint40_linear_1_4515)"/>
<path d="M-40.533 931.152C-1.96572 876.566 359.128 1199.56 274.208 782.28C190.259 365.076 890.123 706.763 798.911 595.88C707.7 484.998 1026.96 377.762 1113.65 374.123C1200.34 370.485 789.873 696.361 1077.24 808.023C1368.16 918.11 1129.56 1068.45 1519.01 1037.22" stroke="url(#paint41_linear_1_4515)"/>
</g>
<defs>
<linearGradient id="paint0_linear_1_4515" x1="-484.507" y1="-206.519" x2="2117" y2="566.827" gradientUnits="userSpaceOnUse">
<stop stop-color="#AABBC6" stop-opacity="0.4"/>
<stop offset="1" stop-color="#AABBC6" stop-opacity="0.2"/>
</linearGradient>
<linearGradient id="paint1_linear_1_4515" x1="-444.053" y1="216.526" x2="2047.01" y2="1137.29" gradientUnits="userSpaceOnUse">
<stop stop-color="#AABBC6" stop-opacity="0.4"/>
<stop offset="1" stop-color="#AABBC6" stop-opacity="0.2"/>
</linearGradient>
<linearGradient id="paint2_linear_1_4515" x1="-483.52" y1="-195.938" x2="2115.41" y2="581.342" gradientUnits="userSpaceOnUse">
<stop stop-color="#AABBC6" stop-opacity="0.4"/>
<stop offset="1" stop-color="#AABBC6" stop-opacity="0.2"/>
</linearGradient>
<linearGradient id="paint3_linear_1_4515" x1="-482.532" y1="-185.362" x2="2113.8" y2="595.864" gradientUnits="userSpaceOnUse">
<stop stop-color="#AABBC6" stop-opacity="0.4"/>
<stop offset="1" stop-color="#AABBC6" stop-opacity="0.2"/>
</linearGradient>
<linearGradient id="paint4_linear_1_4515" x1="-481.548" y1="-174.795" x2="2112.16" y2="610.39" gradientUnits="userSpaceOnUse">
<stop stop-color="#AABBC6" stop-opacity="0.4"/>
<stop offset="1" stop-color="#AABBC6" stop-opacity="0.2"/>
</linearGradient>
<linearGradient id="paint5_linear_1_4515" x1="-480.56" y1="-164.233" x2="2110.49" y2="624.924" gradientUnits="userSpaceOnUse">
<stop stop-color="#AABBC6" stop-opacity="0.4"/>
<stop offset="1" stop-color="#AABBC6" stop-opacity="0.2"/>
</linearGradient>
<linearGradient id="paint6_linear_1_4515" x1="-479.573" y1="-153.68" x2="2108.79" y2="639.462" gradientUnits="userSpaceOnUse">
<stop stop-color="#AABBC6" stop-opacity="0.4"/>
<stop offset="1" stop-color="#AABBC6" stop-opacity="0.2"/>
</linearGradient>
<linearGradient id="paint7_linear_1_4515" x1="-478.588" y1="-143.134" x2="2107.06" y2="654.004" gradientUnits="userSpaceOnUse">
<stop stop-color="#AABBC6" stop-opacity="0.4"/>
<stop offset="1" stop-color="#AABBC6" stop-opacity="0.2"/>
</linearGradient>
<linearGradient id="paint8_linear_1_4515" x1="-477.601" y1="-132.593" x2="2105.31" y2="668.553" gradientUnits="userSpaceOnUse">
<stop stop-color="#AABBC6" stop-opacity="0.4"/>
<stop offset="1" stop-color="#AABBC6" stop-opacity="0.2"/>
</linearGradient>
<linearGradient id="paint9_linear_1_4515" x1="-476.614" y1="-122.061" x2="2103.52" y2="683.106" gradientUnits="userSpaceOnUse">
<stop stop-color="#AABBC6" stop-opacity="0.4"/>
<stop offset="1" stop-color="#AABBC6" stop-opacity="0.2"/>
</linearGradient>
<linearGradient id="paint10_linear_1_4515" x1="-475.626" y1="-111.536" x2="2101.71" y2="697.664" gradientUnits="userSpaceOnUse">
<stop stop-color="#AABBC6" stop-opacity="0.4"/>
<stop offset="1" stop-color="#AABBC6" stop-opacity="0.2"/>
</linearGradient>
<linearGradient id="paint11_linear_1_4515" x1="-474.639" y1="-101.017" x2="2099.87" y2="712.227" gradientUnits="userSpaceOnUse">
<stop stop-color="#AABBC6" stop-opacity="0.4"/>
<stop offset="1" stop-color="#AABBC6" stop-opacity="0.2"/>
</linearGradient>
<linearGradient id="paint12_linear_1_4515" x1="-473.652" y1="-90.5052" x2="2098" y2="726.793" gradientUnits="userSpaceOnUse">
<stop stop-color="#AABBC6" stop-opacity="0.4"/>
<stop offset="1" stop-color="#AABBC6" stop-opacity="0.2"/>
</linearGradient>
<linearGradient id="paint13_linear_1_4515" x1="-472.667" y1="-79.9997" x2="2096.1" y2="741.364" gradientUnits="userSpaceOnUse">
<stop stop-color="#AABBC6" stop-opacity="0.4"/>
<stop offset="1" stop-color="#AABBC6" stop-opacity="0.2"/>
</linearGradient>
<linearGradient id="paint14_linear_1_4515" x1="-471.68" y1="-69.5026" x2="2094.18" y2="755.936" gradientUnits="userSpaceOnUse">
<stop stop-color="#AABBC6" stop-opacity="0.4"/>
<stop offset="1" stop-color="#AABBC6" stop-opacity="0.2"/>
</linearGradient>
<linearGradient id="paint15_linear_1_4515" x1="-470.692" y1="-59.0126" x2="2092.22" y2="770.511" gradientUnits="userSpaceOnUse">
<stop stop-color="#AABBC6" stop-opacity="0.4"/>
<stop offset="1" stop-color="#AABBC6" stop-opacity="0.2"/>
</linearGradient>
<linearGradient id="paint16_linear_1_4515" x1="-469.708" y1="-48.5286" x2="2090.23" y2="785.089" gradientUnits="userSpaceOnUse">
<stop stop-color="#AABBC6" stop-opacity="0.4"/>
<stop offset="1" stop-color="#AABBC6" stop-opacity="0.2"/>
</linearGradient>
<linearGradient id="paint17_linear_1_4515" x1="-468.72" y1="-38.0536" x2="2088.22" y2="799.665" gradientUnits="userSpaceOnUse">
<stop stop-color="#AABBC6" stop-opacity="0.4"/>
<stop offset="1" stop-color="#AABBC6" stop-opacity="0.2"/>
</linearGradient>
<linearGradient id="paint18_linear_1_4515" x1="-467.733" y1="-27.5849" x2="2086.18" y2="814.241" gradientUnits="userSpaceOnUse">
<stop stop-color="#AABBC6" stop-opacity="0.4"/>
<stop offset="1" stop-color="#AABBC6" stop-opacity="0.2"/>
</linearGradient>
<linearGradient id="paint19_linear_1_4515" x1="-466.746" y1="-17.1254" x2="2084.12" y2="828.814" gradientUnits="userSpaceOnUse">
<stop stop-color="#AABBC6" stop-opacity="0.4"/>
<stop offset="1" stop-color="#AABBC6" stop-opacity="0.2"/>
</linearGradient>
<linearGradient id="paint20_linear_1_4515" x1="-465.759" y1="-6.67443" x2="2082.03" y2="843.381" gradientUnits="userSpaceOnUse">
<stop stop-color="#AABBC6" stop-opacity="0.4"/>
<stop offset="1" stop-color="#AABBC6" stop-opacity="0.2"/>
</linearGradient>
<linearGradient id="paint21_linear_1_4515" x1="-464.774" y1="3.7691" x2="2079.91" y2="857.942" gradientUnits="userSpaceOnUse">
<stop stop-color="#AABBC6" stop-opacity="0.4"/>
<stop offset="1" stop-color="#AABBC6" stop-opacity="0.2"/>
</linearGradient>
<linearGradient id="paint22_linear_1_4515" x1="-463.786" y1="14.2021" x2="2077.77" y2="872.491" gradientUnits="userSpaceOnUse">
<stop stop-color="#AABBC6" stop-opacity="0.4"/>
<stop offset="1" stop-color="#AABBC6" stop-opacity="0.2"/>
</linearGradient>
<linearGradient id="paint23_linear_1_4515" x1="-462.799" y1="24.625" x2="2075.61" y2="887.026" gradientUnits="userSpaceOnUse">
<stop stop-color="#AABBC6" stop-opacity="0.4"/>
<stop offset="1" stop-color="#AABBC6" stop-opacity="0.2"/>
</linearGradient>
<linearGradient id="paint24_linear_1_4515" x1="-461.814" y1="35.0385" x2="2073.43" y2="901.544" gradientUnits="userSpaceOnUse">
<stop stop-color="#AABBC6" stop-opacity="0.4"/>
<stop offset="1" stop-color="#AABBC6" stop-opacity="0.2"/>
</linearGradient>
<linearGradient id="paint25_linear_1_4515" x1="-460.827" y1="45.4404" x2="2071.24" y2="916.038" gradientUnits="userSpaceOnUse">
<stop stop-color="#AABBC6" stop-opacity="0.4"/>
<stop offset="1" stop-color="#AABBC6" stop-opacity="0.2"/>
</linearGradient>
<linearGradient id="paint26_linear_1_4515" x1="-459.84" y1="55.8269" x2="2069.03" y2="930.5" gradientUnits="userSpaceOnUse">
<stop stop-color="#AABBC6" stop-opacity="0.4"/>
<stop offset="1" stop-color="#AABBC6" stop-opacity="0.2"/>
</linearGradient>
<linearGradient id="paint27_linear_1_4515" x1="-458.852" y1="66.2017" x2="2066.82" y2="944.927" gradientUnits="userSpaceOnUse">
<stop stop-color="#AABBC6" stop-opacity="0.4"/>
<stop offset="1" stop-color="#AABBC6" stop-opacity="0.2"/>
</linearGradient>
<linearGradient id="paint28_linear_1_4515" x1="-457.865" y1="76.561" x2="2064.62" y2="959.308" gradientUnits="userSpaceOnUse">
<stop stop-color="#AABBC6" stop-opacity="0.4"/>
<stop offset="1" stop-color="#AABBC6" stop-opacity="0.2"/>
</linearGradient>
<linearGradient id="paint29_linear_1_4515" x1="-456.878" y1="86.9011" x2="2062.42" y2="973.63" gradientUnits="userSpaceOnUse">
<stop stop-color="#AABBC6" stop-opacity="0.4"/>
<stop offset="1" stop-color="#AABBC6" stop-opacity="0.2"/>
</linearGradient>
<linearGradient id="paint30_linear_1_4515" x1="-455.893" y1="97.221" x2="2060.23" y2="987.88" gradientUnits="userSpaceOnUse">
<stop stop-color="#AABBC6" stop-opacity="0.4"/>
<stop offset="1" stop-color="#AABBC6" stop-opacity="0.2"/>
</linearGradient>
<linearGradient id="paint31_linear_1_4515" x1="-454.906" y1="107.519" x2="2058.08" y2="1002.04" gradientUnits="userSpaceOnUse">
<stop stop-color="#AABBC6" stop-opacity="0.4"/>
<stop offset="1" stop-color="#AABBC6" stop-opacity="0.2"/>
</linearGradient>
<linearGradient id="paint32_linear_1_4515" x1="-453.918" y1="117.788" x2="2055.97" y2="1016.1" gradientUnits="userSpaceOnUse">
<stop stop-color="#AABBC6" stop-opacity="0.4"/>
<stop offset="1" stop-color="#AABBC6" stop-opacity="0.2"/>
</linearGradient>
<linearGradient id="paint33_linear_1_4515" x1="-452.933" y1="128.026" x2="2053.92" y2="1030.02" gradientUnits="userSpaceOnUse">
<stop stop-color="#AABBC6" stop-opacity="0.4"/>
<stop offset="1" stop-color="#AABBC6" stop-opacity="0.2"/>
</linearGradient>
<linearGradient id="paint34_linear_1_4515" x1="-451.946" y1="138.226" x2="2051.97" y2="1043.76" gradientUnits="userSpaceOnUse">
<stop stop-color="#AABBC6" stop-opacity="0.4"/>
<stop offset="1" stop-color="#AABBC6" stop-opacity="0.2"/>
</linearGradient>
<linearGradient id="paint35_linear_1_4515" x1="-450.959" y1="148.379" x2="2050.13" y2="1057.3" gradientUnits="userSpaceOnUse">
<stop stop-color="#AABBC6" stop-opacity="0.4"/>
<stop offset="1" stop-color="#AABBC6" stop-opacity="0.2"/>
</linearGradient>
<linearGradient id="paint36_linear_1_4515" x1="-449.972" y1="158.476" x2="2048.46" y2="1070.56" gradientUnits="userSpaceOnUse">
<stop stop-color="#AABBC6" stop-opacity="0.4"/>
<stop offset="1" stop-color="#AABBC6" stop-opacity="0.2"/>
</linearGradient>
<linearGradient id="paint37_linear_1_4515" x1="-448.984" y1="168.499" x2="2047.01" y2="1083.46" gradientUnits="userSpaceOnUse">
<stop stop-color="#AABBC6" stop-opacity="0.4"/>
<stop offset="1" stop-color="#AABBC6" stop-opacity="0.2"/>
</linearGradient>
<linearGradient id="paint38_linear_1_4515" x1="-448" y1="178.43" x2="2045.87" y2="1095.9" gradientUnits="userSpaceOnUse">
<stop stop-color="#AABBC6" stop-opacity="0.4"/>
<stop offset="1" stop-color="#AABBC6" stop-opacity="0.2"/>
</linearGradient>
<linearGradient id="paint39_linear_1_4515" x1="-447.012" y1="188.235" x2="2045.16" y2="1107.7" gradientUnits="userSpaceOnUse">
<stop stop-color="#AABBC6" stop-opacity="0.4"/>
<stop offset="1" stop-color="#AABBC6" stop-opacity="0.2"/>
</linearGradient>
<linearGradient id="paint40_linear_1_4515" x1="-446.025" y1="197.867" x2="2045.05" y2="1118.61" gradientUnits="userSpaceOnUse">
<stop stop-color="#AABBC6" stop-opacity="0.4"/>
<stop offset="1" stop-color="#AABBC6" stop-opacity="0.2"/>
</linearGradient>
<linearGradient id="paint41_linear_1_4515" x1="-445.04" y1="207.265" x2="2045.78" y2="1128.31" gradientUnits="userSpaceOnUse">
<stop stop-color="#AABBC6" stop-opacity="0.4"/>
<stop offset="1" stop-color="#AABBC6" stop-opacity="0.2"/>
</linearGradient>
</defs>
</svg>
